<?xml version="1.0" standalone="no"?><svg xmlns:xlink="http://www.w3.org/1999/xlink" xmlns="http://www.w3.org/2000/svg" viewBox="0 0 1000 300.000120000048" preserveAspectRatio="xMaxYMax slice"><g transform="scale(1.200000480000192)"><rect x="0" y="0" width="833.3333333333333" height="250" fill="#ffffff"/><rect x="0" y="0" width="83.33" height="83.33" fill="#2e56f7"/><polygon points="0,0 83.33,83.33 0,83.33" fill="#ff8f53"/><rect x="83.33" y="0" width="83.33" height="83.33" fill="#fff4ee"/><g transform="translate(83.33,0) scale(4.1665) rotate(0)"><path d="M10 0H20L0 20V10L10 0Z" fill="#0b3af5"/><path d="M20 10V20H10L20 10Z" fill="#0b3af5"/></g><rect x="166.67" y="0" width="83.33" height="83.33" fill="#ff9f6c"/><g transform="translate(166.67,0) scale(4.1665) rotate(0)"><path d="M13 0H20V7L7 20H0V13L13 0Z" fill="#feffff"/></g><rect x="250" y="0" width="83.33333333333333" height="83.33333333333333" fill="#ffffff"/><rect x="250" y="0" width="41.67" height="41.67" fill="#a0b2fb"/><g transform="translate(250,0) scale(2.0835) rotate(0)"><path d="M13 0H20V7L7 20H0V13L13 0Z" fill="#fff2eb"/></g><rect x="291.67" y="0" width="41.67" height="41.67" fill="#ffb187"/><g transform="translate(291.67,0) scale(2.0835) rotate(0)"><path d="M13 0H20V7L7 20H0V13L13 0Z" fill="#9caffb"/></g><rect x="250" y="41.67" width="41.67" height="41.67" fill="#ff8646"/><polygon points="250,41.67 291.67,41.67 291.67,83.34" fill="#7691fa"/><rect x="291.67" y="41.67" width="41.67" height="41.67" fill="#6482f9"/><rect x="291.67" y="41.67" width="41.67" height="41.67" fill="#ff8443"/><rect x="333.3333333333333" y="0" width="83.33333333333333" height="83.33333333333333" fill="#ffffff"/><rect x="333.33" y="0" width="41.67" height="41.67" fill="#dee4fe"/><rect x="333.33" y="0" width="41.67" height="41.67" fill="#9baefb"/><rect x="375" y="0" width="41.67" height="41.67" fill="#ffefe7"/><polygon points="375,0 416.67,0 416.67,41.67" fill="#1643f6"/><rect x="333.33" y="41.67" width="41.67" height="41.67" fill="#ff8c4f"/><g transform="translate(333.33,41.67) scale(2.0835) rotate(0)"><path d="M10 0H20L0 20V10L10 0Z" fill="#eff2fe"/><path d="M20 10V20H10L20 10Z" fill="#eff2fe"/></g><rect x="375" y="41.67" width="41.67" height="41.67" fill="#ffc5a6"/><polygon points="416.67,41.67 416.67,83.34 375,83.34" fill="#ff7a33"/><rect x="416.67" y="0" width="83.33" height="83.33" fill="#ff9860"/><rect x="416.67" y="0" width="83.33" height="83.33" fill="#4468f8"/><rect x="500" y="0" width="83.33" height="83.33" fill="#ffb28a"/><rect x="500" y="0" width="83.33" height="83.33" fill="#ffccb0"/><rect x="583.33" y="0" width="83.33" height="83.33" fill="#94a9fb"/><polygon points="583.33,0 666.6600000000001,0 666.6600000000001,83.33" fill="#6784f9"/><rect x="666.6666666666666" y="0" width="83.33333333333333" height="83.33333333333333" fill="#ffffff"/><rect x="666.67" y="0" width="41.67" height="41.67" fill="#d5ddfd"/><g transform="translate(666.67,0) scale(2.0835) rotate(0)"><path d="M13 0H20V7L7 20H0V13L13 0Z" fill="#d9e0fd"/></g><rect x="708.33" y="0" width="41.67" height="41.67" fill="#ffbb97"/><polygon points="708.33,0 750,41.67 708.33,41.67" fill="#a2b3fb"/><rect x="666.67" y="41.67" width="41.67" height="41.67" fill="#ffffff"/><rect x="666.67" y="41.67" width="41.67" height="41.67" fill="#ff8d50"/><rect x="708.33" y="41.67" width="41.67" height="41.67" fill="#ffd8c3"/><g transform="translate(708.33,41.67) scale(2.0835) rotate(0)"><path d="M13 0H20V7L7 20H0V13L13 0Z" fill="#ffcbaf"/></g><rect x="750" y="0" width="83.33" height="83.33" fill="#ff7b34"/><g transform="translate(750,0) scale(4.1665) rotate(0)"><path d="M10 0H20L0 20V10L10 0Z" fill="#ffebe0"/><path d="M20 10V20H10L20 10Z" fill="#ffebe0"/></g><rect x="0" y="83.33333333333333" width="83.33333333333333" height="83.33333333333333" fill="#ffffff"/><rect x="0" y="83.33" width="41.67" height="41.67" fill="#ffb289"/><g transform="translate(0,83.33) scale(2.0835) rotate(0)"><path d="M13 0H20V7L7 20H0V13L13 0Z" fill="#ffc1a0"/></g><rect x="41.67" y="83.33" width="41.67" height="41.67" fill="#d0d9fd"/><rect x="41.67" y="83.33" width="41.67" height="41.67" fill="#1b47f6"/><rect x="0" y="125" width="41.67" height="41.67" fill="#ff8a4b"/><polygon points="41.67,125 41.67,166.67000000000002 0,166.67000000000002" fill="#fff4ee"/><rect x="41.67" y="125" width="41.67" height="41.67" fill="#ffdecd"/><g transform="translate(41.67,125) scale(2.0835) rotate(0)"><path d="M13 0H20V7L7 20H0V13L13 0Z" fill="#fffaf8"/></g><rect x="83.33333333333333" y="83.33333333333333" width="83.33333333333333" height="83.33333333333333" fill="#ffffff"/><rect x="83.33" y="83.33" width="41.67" height="41.67" fill="#718cf9"/><g transform="translate(83.33,83.33) scale(2.0835) rotate(0)"><path d="M10 0H20L0 20V10L10 0Z" fill="#bac7fc"/><path d="M20 10V20H10L20 10Z" fill="#bac7fc"/></g><rect x="125" y="83.33" width="41.67" height="41.67" fill="#ff9055"/><g transform="translate(125,83.33) scale(2.0835) rotate(0)"><path d="M10 0H20L0 20V10L10 0Z" fill="#4669f8"/><path d="M20 10V20H10L20 10Z" fill="#4669f8"/></g><rect x="83.33" y="125" width="41.67" height="41.67" fill="#ffd2ba"/><g transform="translate(83.33,125) scale(2.0835) rotate(0)"><path d="M10 0H20L0 20V10L10 0Z" fill="#fff7f2"/><path d="M20 10V20H10L20 10Z" fill="#fff7f2"/></g><rect x="125" y="125" width="41.67" height="41.67" fill="#fff6f1"/><rect x="125" y="125" width="41.67" height="41.67" fill="#ff9359"/><rect x="166.67" y="83.33" width="83.33" height="83.33" fill="#ffa270"/><g transform="translate(166.67,83.33) scale(4.1665) rotate(0)"><path d="M13 0H20V7L7 20H0V13L13 0Z" fill="#1341f6"/></g><rect x="250" y="83.33" width="83.33" height="83.33" fill="#5e7df9"/><rect x="250" y="83.33" width="83.33" height="83.33" fill="#fbfcff"/><rect x="333.33" y="83.33" width="83.33" height="83.33" fill="#0e3df5"/><g transform="translate(333.33,83.33) scale(4.1665) rotate(0)"><path d="M13 0H20V7L7 20H0V13L13 0Z" fill="#c8d2fd"/></g><rect x="416.67" y="83.33" width="83.33" height="83.33" fill="#ffefe7"/><rect x="416.67" y="83.33" width="83.33" height="83.33" fill="#ffb38a"/><rect x="500" y="83.33333333333333" width="83.33333333333333" height="83.33333333333333" fill="#ffffff"/><rect x="500" y="83.33" width="41.67" height="41.67" fill="#ffc3a3"/><polygon points="500,83.33 541.67,125 500,125" fill="#ffba95"/><rect x="541.67" y="83.33" width="41.67" height="41.67" fill="#ff8442"/><g transform="translate(541.67,83.33) scale(2.0835) rotate(0)"><path d="M13 0H20V7L7 20H0V13L13 0Z" fill="#ffb085"/></g><rect x="500" y="125" width="41.67" height="41.67" fill="#ffefe7"/><rect x="500" y="125" width="41.67" height="41.67" fill="#8da3fa"/><rect x="541.67" y="125" width="41.67" height="41.67" fill="#b2c1fc"/><polygon points="541.67,125 583.3399999999999,125 583.3399999999999,166.67000000000002" fill="#fff3ec"/><rect x="583.3333333333333" y="83.33333333333333" width="83.33333333333333" height="83.33333333333333" fill="#ffffff"/><rect x="583.33" y="83.33" width="41.67" height="41.67" fill="#ffddcb"/><polygon points="625,83.33 625,125 583.33,125" fill="#fff1ea"/><rect x="625" y="83.33" width="41.67" height="41.67" fill="#eaeefe"/><g transform="translate(625,83.33) scale(2.0835) rotate(0)"><path d="M10 0H20L0 20V10L10 0Z" fill="#0636f5"/><path d="M20 10V20H10L20 10Z" fill="#0636f5"/></g><rect x="583.33" y="125" width="41.67" height="41.67" fill="#ffe7da"/><polygon points="583.33,125 625,125 625,166.67000000000002" fill="#ffaf85"/><rect x="625" y="125" width="41.67" height="41.67" fill="#98acfb"/><rect x="625" y="125" width="41.67" height="41.67" fill="#9db0fb"/><rect x="666.67" y="83.33" width="83.33" height="83.33" fill="#cad4fd"/><rect x="666.67" y="83.33" width="83.33" height="83.33" fill="#f3f6ff"/><rect x="750" y="83.33" width="83.33" height="83.33" fill="#c2cdfd"/><g transform="translate(750,83.33) scale(4.1665) rotate(0)"><path d="M13 0H20V7L7 20H0V13L13 0Z" fill="#91a6fb"/></g><rect x="0" y="166.66666666666666" width="83.33333333333333" height="83.33333333333333" fill="#ffffff"/><rect x="0" y="166.67" width="41.67" height="41.67" fill="#ffddcb"/><polygon points="41.67,166.67 41.67,208.33999999999997 0,208.33999999999997" fill="#ffa474"/><rect x="41.67" y="166.67" width="41.67" height="41.67" fill="#879efa"/><g transform="translate(41.67,166.67) scale(2.0835) rotate(0)"><path d="M13 0H20V7L7 20H0V13L13 0Z" fill="#d1dafd"/></g><rect x="0" y="208.33" width="41.67" height="41.67" fill="#ffa778"/><rect x="0" y="208.33" width="41.67" height="41.67" fill="#ffffff"/><rect x="41.67" y="208.33" width="41.67" height="41.67" fill="#ffb188"/><rect x="41.67" y="208.33" width="41.67" height="41.67" fill="#afbffc"/><rect x="83.33" y="166.67" width="83.33" height="83.33" fill="#8fa4fb"/><polygon points="83.33,166.67 166.66,166.67 83.33,250" fill="#ff8a4b"/><rect x="166.66666666666666" y="166.66666666666666" width="83.33333333333333" height="83.33333333333333" fill="#ffffff"/><rect x="166.67" y="166.67" width="41.67" height="41.67" fill="#ff9055"/><g transform="translate(166.67,166.67) scale(2.0835) rotate(0)"><path d="M13 0H20V7L7 20H0V13L13 0Z" fill="#3159f7"/></g><rect x="208.33" y="166.67" width="41.67" height="41.67" fill="#2650f6"/><g transform="translate(208.33,166.67) scale(2.0835) rotate(0)"><path d="M13 0H20V7L7 20H0V13L13 0Z" fill="#ff8c4e"/></g><rect x="166.67" y="208.33" width="41.67" height="41.67" fill="#d0d9fd"/><polygon points="166.67,208.33 208.33999999999997,208.33 166.67,250" fill="#ffd7c1"/><rect x="208.33" y="208.33" width="41.67" height="41.67" fill="#5f7ef9"/><rect x="208.33" y="208.33" width="41.67" height="41.67" fill="#ff8c4f"/><rect x="250" y="166.67" width="83.33" height="83.33" fill="#ffdecd"/><polygon points="250,166.67 333.33,250 250,250" fill="#a3b5fb"/><rect x="333.33" y="166.67" width="83.33" height="83.33" fill="#e0e6fe"/><polygon points="416.65999999999997,166.67 416.65999999999997,250 333.33,250" fill="#fff4ee"/><rect x="416.67" y="166.67" width="83.33" height="83.33" fill="#6e8af9"/><polygon points="416.67,166.67 500,166.67 416.67,250" fill="#0b3af5"/><rect x="500" y="166.66666666666666" width="83.33333333333333" height="83.33333333333333" fill="#ffffff"/><rect x="500" y="166.67" width="41.67" height="41.67" fill="#ffcdb2"/><rect x="500" y="166.67" width="41.67" height="41.67" fill="#6b87f9"/><rect x="541.67" y="166.67" width="41.67" height="41.67" fill="#9fb1fb"/><polygon points="583.3399999999999,166.67 583.3399999999999,208.33999999999997 541.67,208.33999999999997" fill="#ffe7da"/><rect x="500" y="208.33" width="41.67" height="41.67" fill="#8ba1fa"/><g transform="translate(500,208.33) scale(2.0835) rotate(0)"><path d="M10 0H20L0 20V10L10 0Z" fill="#d5ddfd"/><path d="M20 10V20H10L20 10Z" fill="#d5ddfd"/></g><rect x="541.67" y="208.33" width="41.67" height="41.67" fill="#ffa777"/><g transform="translate(541.67,208.33) scale(2.0835) rotate(0)"><path d="M10 0H20L0 20V10L10 0Z" fill="#355cf7"/><path d="M20 10V20H10L20 10Z" fill="#355cf7"/></g><rect x="583.33" y="166.67" width="83.33" height="83.33" fill="#ffece2"/><g transform="translate(583.33,166.67) scale(4.1665) rotate(0)"><path d="M10 0H20L0 20V10L10 0Z" fill="#ffceb5"/><path d="M20 10V20H10L20 10Z" fill="#ffceb5"/></g><rect x="666.6666666666666" y="166.66666666666666" width="83.33333333333333" height="83.33333333333333" fill="#ffffff"/><rect x="666.67" y="166.67" width="41.67" height="41.67" fill="#ff8747"/><g transform="translate(666.67,166.67) scale(2.0835) rotate(0)"><path d="M10 0H20L0 20V10L10 0Z" fill="#5172f8"/><path d="M20 10V20H10L20 10Z" fill="#5172f8"/></g><rect x="708.33" y="166.67" width="41.67" height="41.67" fill="#ffc2a1"/><polygon points="750,166.67 750,208.33999999999997 708.33,208.33999999999997" fill="#ffab7e"/><rect x="666.67" y="208.33" width="41.67" height="41.67" fill="#ffaa7d"/><g transform="translate(666.67,208.33) scale(2.0835) rotate(0)"><path d="M13 0H20V7L7 20H0V13L13 0Z" fill="#ffc7a9"/></g><rect x="708.33" y="208.33" width="41.67" height="41.67" fill="#fff9f6"/><g transform="translate(708.33,208.33) scale(2.0835) rotate(0)"><path d="M13 0H20V7L7 20H0V13L13 0Z" fill="#6985f9"/></g><rect x="750" y="166.67" width="83.33" height="83.33" fill="#ffc6a7"/><rect x="750" y="166.67" width="83.33" height="83.33" fill="#ffbe9b"/></g></svg>